<svg xmlns="http://www.w3.org/2000/svg" width="83.143" height="48.5" viewBox="0 0 83.143 48.5">
  <path id="Icon_material-motorcycle" data-name="Icon material-motorcycle" d="M67.345,21.461,53.384,7.5H38.107v6.929H50.544l6.929,6.929H17.321a17.321,17.321,0,0,0,0,34.643A17.082,17.082,0,0,0,34.3,42.143h5.716l9.6-9.6A16.916,16.916,0,0,0,48.5,38.678,17.321,17.321,0,1,0,67.345,21.461ZM27.091,42.143a10.547,10.547,0,0,1-9.769,6.929,10.393,10.393,0,0,1,0-20.786,10.547,10.547,0,0,1,9.769,6.929H17.321v6.929Zm38.731,6.929A10.393,10.393,0,1,1,76.214,38.678,10.379,10.379,0,0,1,65.821,49.071Z" transform="translate(0 -7.5)" fill="#ff008a"/>
</svg>
