<svg xmlns="http://www.w3.org/2000/svg" width="52.026" height="52.026" viewBox="0 0 52.026 52.026">
  <path id="Icon_awesome-wine-bottle" data-name="Icon awesome-wine-bottle" d="M51.55,7.374l-6.9-6.9a1.626,1.626,0,0,0-2.3,0l-2.3,2.3a1.626,1.626,0,0,0,0,2.3l-7.791,7.791A13,13,0,0,0,18,15.633L1.905,31.727a6.5,6.5,0,0,0,0,9.2l9.2,9.2a6.5,6.5,0,0,0,9.2,0L36.394,34.026a13,13,0,0,0,2.767-14.264l7.791-7.791a1.626,1.626,0,0,0,2.3,0l2.3-2.3A1.626,1.626,0,0,0,51.55,7.374ZM18.211,43.012l-9.2-9.2,12.4-12.4,9.2,9.2-12.4,12.4Z" transform="translate(0 0)" fill="#ff008a"/>
</svg>
